<svg width="356" height="380" viewBox="0 0 356 380" fill="none" xmlns="http://www.w3.org/2000/svg">
<rect width="356" height="380" rx="16" fill="white"/>
<path d="M28.7727 30.6136V29.3636H37.5V30.6136H33.8409V41H32.4318V30.6136H28.7727ZM40.8338 35.75V41H39.4929V29.3636H40.8338V33.6364H40.9474C41.152 33.1856 41.4588 32.8277 41.8679 32.5625C42.2808 32.2936 42.83 32.1591 43.5156 32.1591C44.1103 32.1591 44.6312 32.2784 45.0781 32.517C45.5251 32.7519 45.8717 33.1136 46.1179 33.6023C46.3679 34.0871 46.4929 34.7045 46.4929 35.4545V41H45.152V35.5455C45.152 34.8523 44.9721 34.3163 44.6122 33.9375C44.2562 33.5549 43.7618 33.3636 43.1293 33.3636C42.6899 33.3636 42.2959 33.4564 41.9474 33.642C41.6027 33.8277 41.33 34.0985 41.1293 34.4545C40.9323 34.8106 40.8338 35.2424 40.8338 35.75ZM48.946 41V32.2727H50.2869V41H48.946ZM49.6278 30.8182C49.3665 30.8182 49.1411 30.7292 48.9517 30.5511C48.7661 30.3731 48.6733 30.1591 48.6733 29.9091C48.6733 29.6591 48.7661 29.4451 48.9517 29.267C49.1411 29.089 49.3665 29 49.6278 29C49.8892 29 50.1127 29.089 50.2983 29.267C50.4877 29.4451 50.5824 29.6591 50.5824 29.9091C50.5824 30.1591 50.4877 30.3731 50.2983 30.5511C50.1127 30.7292 49.8892 30.8182 49.6278 30.8182ZM58.9247 34.2273L57.7202 34.5682C57.6444 34.3674 57.5327 34.1723 57.3849 33.983C57.241 33.7898 57.044 33.6307 56.794 33.5057C56.544 33.3807 56.224 33.3182 55.8338 33.3182C55.2997 33.3182 54.8546 33.4413 54.4986 33.6875C54.1463 33.9299 53.9702 34.2386 53.9702 34.6136C53.9702 34.947 54.0914 35.2102 54.3338 35.4034C54.5762 35.5966 54.955 35.7576 55.4702 35.8864L56.7656 36.2045C57.5459 36.3939 58.1274 36.6837 58.5099 37.0739C58.8925 37.4602 59.0838 37.9583 59.0838 38.5682C59.0838 39.0682 58.9399 39.5152 58.652 39.9091C58.3679 40.303 57.9702 40.6136 57.4588 40.8409C56.9474 41.0682 56.3527 41.1818 55.6747 41.1818C54.7846 41.1818 54.0478 40.9886 53.4645 40.6023C52.8812 40.2159 52.5118 39.6515 52.3565 38.9091L53.6293 38.5909C53.7505 39.0606 53.9796 39.4129 54.3168 39.6477C54.6577 39.8826 55.1027 40 55.652 40C56.277 40 56.7732 39.8674 57.1406 39.6023C57.5118 39.3333 57.6974 39.0114 57.6974 38.6364C57.6974 38.3333 57.5914 38.0795 57.3793 37.875C57.1671 37.6667 56.8414 37.5114 56.402 37.4091L54.9474 37.0682C54.1482 36.8788 53.5611 36.5852 53.1861 36.1875C52.8149 35.786 52.6293 35.2841 52.6293 34.6818C52.6293 34.1894 52.7675 33.7538 53.044 33.375C53.3243 32.9962 53.705 32.6989 54.1861 32.483C54.6709 32.267 55.2202 32.1591 55.8338 32.1591C56.6974 32.1591 57.3755 32.3485 57.8679 32.7273C58.3641 33.1061 58.7164 33.6061 58.9247 34.2273ZM67.5795 41L64.9205 32.2727H66.3295L68.2159 38.9545H68.3068L70.1705 32.2727H71.6023L73.4432 38.9318H73.5341L75.4205 32.2727H76.8295L74.1705 41H72.8523L70.9432 34.2955H70.8068L68.8977 41H67.5795ZM81.9645 41.1818C81.1236 41.1818 80.3982 40.9962 79.7884 40.625C79.1823 40.25 78.7145 39.7273 78.3849 39.0568C78.0592 38.3826 77.8963 37.5985 77.8963 36.7045C77.8963 35.8106 78.0592 35.0227 78.3849 34.3409C78.7145 33.6553 79.1728 33.1212 79.7599 32.7386C80.3509 32.3523 81.0402 32.1591 81.8281 32.1591C82.2827 32.1591 82.7315 32.2348 83.1747 32.3864C83.6179 32.5379 84.0213 32.7841 84.3849 33.125C84.7486 33.4621 85.0384 33.9091 85.2543 34.4659C85.4702 35.0227 85.5781 35.7083 85.5781 36.5227V37.0909H78.8509V35.9318H84.2145C84.2145 35.4394 84.116 35 83.919 34.6136C83.7259 34.2273 83.4493 33.9223 83.0895 33.6989C82.7334 33.4754 82.313 33.3636 81.8281 33.3636C81.294 33.3636 80.8319 33.4962 80.4418 33.7614C80.0554 34.0227 79.758 34.3636 79.5497 34.7841C79.3414 35.2045 79.2372 35.6553 79.2372 36.1364V36.9091C79.2372 37.5682 79.3509 38.1269 79.5781 38.5852C79.8092 39.0398 80.1293 39.3864 80.5384 39.625C80.9474 39.8598 81.4228 39.9773 81.9645 39.9773C82.3168 39.9773 82.6349 39.928 82.919 39.8295C83.2069 39.7273 83.455 39.5758 83.6634 39.375C83.8717 39.1705 84.0327 38.9167 84.1463 38.6136L85.4418 38.9773C85.3054 39.4167 85.0762 39.803 84.7543 40.1364C84.4323 40.4659 84.0346 40.7235 83.5611 40.9091C83.0876 41.0909 82.5554 41.1818 81.9645 41.1818ZM91.277 41.1818C90.4361 41.1818 89.7107 40.9962 89.1009 40.625C88.4948 40.25 88.027 39.7273 87.6974 39.0568C87.3717 38.3826 87.2088 37.5985 87.2088 36.7045C87.2088 35.8106 87.3717 35.0227 87.6974 34.3409C88.027 33.6553 88.4853 33.1212 89.0724 32.7386C89.6634 32.3523 90.3527 32.1591 91.1406 32.1591C91.5952 32.1591 92.044 32.2348 92.4872 32.3864C92.9304 32.5379 93.3338 32.7841 93.6974 33.125C94.0611 33.4621 94.3509 33.9091 94.5668 34.4659C94.7827 35.0227 94.8906 35.7083 94.8906 36.5227V37.0909H88.1634V35.9318H93.527C93.527 35.4394 93.4285 35 93.2315 34.6136C93.0384 34.2273 92.7618 33.9223 92.402 33.6989C92.0459 33.4754 91.6255 33.3636 91.1406 33.3636C90.6065 33.3636 90.1444 33.4962 89.7543 33.7614C89.3679 34.0227 89.0705 34.3636 88.8622 34.7841C88.6539 35.2045 88.5497 35.6553 88.5497 36.1364V36.9091C88.5497 37.5682 88.6634 38.1269 88.8906 38.5852C89.1217 39.0398 89.4418 39.3864 89.8509 39.625C90.2599 39.8598 90.7353 39.9773 91.277 39.9773C91.6293 39.9773 91.9474 39.928 92.2315 39.8295C92.5194 39.7273 92.7675 39.5758 92.9759 39.375C93.1842 39.1705 93.3452 38.9167 93.4588 38.6136L94.7543 38.9773C94.6179 39.4167 94.3887 39.803 94.0668 40.1364C93.7448 40.4659 93.3471 40.7235 92.8736 40.9091C92.4001 41.0909 91.8679 41.1818 91.277 41.1818ZM98.1804 37.8182L98.1577 36.1591H98.4304L102.249 32.2727H103.908L99.8395 36.3864H99.7259L98.1804 37.8182ZM96.9304 41V29.3636H98.2713V41H96.9304ZM102.476 41L99.0668 36.6818L100.021 35.75L104.18 41H102.476ZM106.815 29.3636V30.3864C106.815 30.697 106.759 31.0284 106.645 31.3807C106.535 31.7292 106.372 32.0682 106.156 32.3977C105.944 32.7235 105.687 33.0076 105.384 33.25L104.656 32.6591C104.895 32.3182 105.101 31.964 105.276 31.5966C105.454 31.2254 105.543 30.8295 105.543 30.4091V29.3636H106.815ZM113.534 34.2273L112.33 34.5682C112.254 34.3674 112.142 34.1723 111.994 33.983C111.85 33.7898 111.653 33.6307 111.403 33.5057C111.153 33.3807 110.833 33.3182 110.443 33.3182C109.909 33.3182 109.464 33.4413 109.108 33.6875C108.756 33.9299 108.58 34.2386 108.58 34.6136C108.58 34.947 108.701 35.2102 108.943 35.4034C109.186 35.5966 109.564 35.7576 110.08 35.8864L111.375 36.2045C112.155 36.3939 112.737 36.6837 113.119 37.0739C113.502 37.4602 113.693 37.9583 113.693 38.5682C113.693 39.0682 113.549 39.5152 113.261 39.9091C112.977 40.303 112.58 40.6136 112.068 40.8409C111.557 41.0682 110.962 41.1818 110.284 41.1818C109.394 41.1818 108.657 40.9886 108.074 40.6023C107.491 40.2159 107.121 39.6515 106.966 38.9091L108.239 38.5909C108.36 39.0606 108.589 39.4129 108.926 39.6477C109.267 39.8826 109.712 40 110.261 40C110.886 40 111.383 39.8674 111.75 39.6023C112.121 39.3333 112.307 39.0114 112.307 38.6364C112.307 38.3333 112.201 38.0795 111.989 37.875C111.777 37.6667 111.451 37.5114 111.011 37.4091L109.557 37.0682C108.758 36.8788 108.17 36.5852 107.795 36.1875C107.424 35.786 107.239 35.2841 107.239 34.6818C107.239 34.1894 107.377 33.7538 107.653 33.375C107.934 32.9962 108.314 32.6989 108.795 32.483C109.28 32.267 109.83 32.1591 110.443 32.1591C111.307 32.1591 111.985 32.3485 112.477 32.7273C112.973 33.1061 113.326 33.6061 113.534 34.2273ZM124.621 37.3636H126.166L127.462 39.0682L127.803 39.5227L129.734 42.0909H128.189L126.916 40.3864L126.598 39.9545L124.621 37.3636ZM130.212 35.1818C130.212 36.4091 129.99 37.4697 129.547 38.3636C129.104 39.2576 128.496 39.947 127.723 40.4318C126.95 40.9167 126.068 41.1591 125.075 41.1591C124.083 41.1591 123.2 40.9167 122.428 40.4318C121.655 39.947 121.047 39.2576 120.604 38.3636C120.161 37.4697 119.939 36.4091 119.939 35.1818C119.939 33.9545 120.161 32.8939 120.604 32C121.047 31.1061 121.655 30.4167 122.428 29.9318C123.2 29.447 124.083 29.2045 125.075 29.2045C126.068 29.2045 126.95 29.447 127.723 29.9318C128.496 30.4167 129.104 31.1061 129.547 32C129.99 32.8939 130.212 33.9545 130.212 35.1818ZM128.848 35.1818C128.848 34.1742 128.679 33.3239 128.342 32.6307C128.009 31.9375 127.556 31.4129 126.984 31.0568C126.416 30.7008 125.78 30.5227 125.075 30.5227C124.371 30.5227 123.732 30.7008 123.161 31.0568C122.592 31.4129 122.14 31.9375 121.803 32.6307C121.469 33.3239 121.303 34.1742 121.303 35.1818C121.303 36.1894 121.469 37.0398 121.803 37.733C122.14 38.4261 122.592 38.9508 123.161 39.3068C123.732 39.6629 124.371 39.8409 125.075 39.8409C125.78 39.8409 126.416 39.6629 126.984 39.3068C127.556 38.9508 128.009 38.4261 128.342 37.733C128.679 37.0398 128.848 36.1894 128.848 35.1818ZM133.74 29.3636V41H132.399V29.3636H133.74ZM139.741 41.1818C138.954 41.1818 138.262 40.9943 137.668 40.6193C137.077 40.2443 136.615 39.7197 136.281 39.0455C135.952 38.3712 135.787 37.5833 135.787 36.6818C135.787 35.7727 135.952 34.9792 136.281 34.3011C136.615 33.6231 137.077 33.0966 137.668 32.7216C138.262 32.3466 138.954 32.1591 139.741 32.1591C140.529 32.1591 141.219 32.3466 141.81 32.7216C142.404 33.0966 142.866 33.6231 143.196 34.3011C143.529 34.9792 143.696 35.7727 143.696 36.6818C143.696 37.5833 143.529 38.3712 143.196 39.0455C142.866 39.7197 142.404 40.2443 141.81 40.6193C141.219 40.9943 140.529 41.1818 139.741 41.1818ZM139.741 39.9773C140.34 39.9773 140.832 39.8239 141.219 39.517C141.605 39.2102 141.891 38.8068 142.077 38.3068C142.262 37.8068 142.355 37.2652 142.355 36.6818C142.355 36.0985 142.262 35.5549 142.077 35.0511C141.891 34.5473 141.605 34.1402 141.219 33.8295C140.832 33.5189 140.34 33.3636 139.741 33.3636C139.143 33.3636 138.651 33.5189 138.264 33.8295C137.878 34.1402 137.592 34.5473 137.406 35.0511C137.221 35.5549 137.128 36.0985 137.128 36.6818C137.128 37.2652 137.221 37.8068 137.406 38.3068C137.592 38.8068 137.878 39.2102 138.264 39.517C138.651 39.8239 139.143 39.9773 139.741 39.9773ZM149.288 41.1818C148.47 41.1818 147.766 40.9886 147.175 40.6023C146.584 40.2159 146.129 39.6837 145.811 39.0057C145.493 38.3277 145.334 37.553 145.334 36.6818C145.334 35.7955 145.497 35.0133 145.822 34.3352C146.152 33.6534 146.61 33.1212 147.197 32.7386C147.788 32.3523 148.478 32.1591 149.266 32.1591C149.879 32.1591 150.432 32.2727 150.925 32.5C151.417 32.7273 151.821 33.0455 152.135 33.4545C152.449 33.8636 152.644 34.3409 152.72 34.8864H151.379C151.277 34.4886 151.05 34.1364 150.697 33.8295C150.349 33.5189 149.879 33.3636 149.288 33.3636C148.766 33.3636 148.307 33.5 147.913 33.7727C147.523 34.0417 147.218 34.4223 146.999 34.9148C146.783 35.4034 146.675 35.9773 146.675 36.6364C146.675 37.3106 146.781 37.8977 146.993 38.3977C147.209 38.8977 147.512 39.286 147.902 39.5625C148.296 39.839 148.758 39.9773 149.288 39.9773C149.637 39.9773 149.953 39.9167 150.237 39.7955C150.521 39.6742 150.762 39.5 150.959 39.2727C151.156 39.0455 151.296 38.7727 151.379 38.4545H152.72C152.644 38.9697 152.457 39.4337 152.158 39.8466C151.862 40.2557 151.47 40.5814 150.982 40.8239C150.497 41.0625 149.932 41.1818 149.288 41.1818ZM155.93 37.8182L155.908 36.1591H156.18L159.999 32.2727H161.658L157.589 36.3864H157.476L155.93 37.8182ZM154.68 41V29.3636H156.021V41H154.68ZM160.226 41L156.817 36.6818L157.771 35.75L161.93 41H160.226ZM167.649 35.3864V36.6364H162.558V35.3864H167.649ZM171.599 29.3636V41H170.19V29.3636H171.599ZM175.584 35.75V41H174.243V32.2727H175.538V33.6364H175.652C175.857 33.1932 176.167 32.8371 176.584 32.5682C177 32.2955 177.538 32.1591 178.197 32.1591C178.788 32.1591 179.305 32.2803 179.749 32.5227C180.192 32.7614 180.536 33.125 180.783 33.6136C181.029 34.0985 181.152 34.7121 181.152 35.4545V41H179.811V35.5455C179.811 34.8598 179.633 34.3258 179.277 33.9432C178.921 33.5568 178.432 33.3636 177.811 33.3636C177.383 33.3636 177 33.4564 176.663 33.642C176.33 33.8277 176.067 34.0985 175.874 34.4545C175.68 34.8106 175.584 35.2424 175.584 35.75ZM189.784 34.2273L188.58 34.5682C188.504 34.3674 188.392 34.1723 188.244 33.983C188.1 33.7898 187.903 33.6307 187.653 33.5057C187.403 33.3807 187.083 33.3182 186.693 33.3182C186.159 33.3182 185.714 33.4413 185.358 33.6875C185.006 33.9299 184.83 34.2386 184.83 34.6136C184.83 34.947 184.951 35.2102 185.193 35.4034C185.436 35.5966 185.814 35.7576 186.33 35.8864L187.625 36.2045C188.405 36.3939 188.987 36.6837 189.369 37.0739C189.752 37.4602 189.943 37.9583 189.943 38.5682C189.943 39.0682 189.799 39.5152 189.511 39.9091C189.227 40.303 188.83 40.6136 188.318 40.8409C187.807 41.0682 187.212 41.1818 186.534 41.1818C185.644 41.1818 184.907 40.9886 184.324 40.6023C183.741 40.2159 183.371 39.6515 183.216 38.9091L184.489 38.5909C184.61 39.0606 184.839 39.4129 185.176 39.6477C185.517 39.8826 185.962 40 186.511 40C187.136 40 187.633 39.8674 188 39.6023C188.371 39.3333 188.557 39.0114 188.557 38.6364C188.557 38.3333 188.451 38.0795 188.239 37.875C188.027 37.6667 187.701 37.5114 187.261 37.4091L185.807 37.0682C185.008 36.8788 184.42 36.5852 184.045 36.1875C183.674 35.786 183.489 35.2841 183.489 34.6818C183.489 34.1894 183.627 33.7538 183.903 33.375C184.184 32.9962 184.564 32.6989 185.045 32.483C185.53 32.267 186.08 32.1591 186.693 32.1591C187.557 32.1591 188.235 32.3485 188.727 32.7273C189.223 33.1061 189.576 33.6061 189.784 34.2273Z" fill="#6E6E91"/>
<path d="M29.5341 79.9091V76.0341L39.25 60.7273H42.5909V66.0909H40.6136L34.4886 75.7841V75.9659H48.2955V79.9091H29.5341ZM40.7045 84V78.7273L40.7955 77.0114V60.7273H45.4091V84H40.7045ZM49.6216 79.9091V76.0341L59.3375 60.7273H62.6784V66.0909H60.7011L54.5761 75.7841V75.9659H68.383V79.9091H49.6216ZM60.792 84V78.7273L60.883 77.0114V60.7273H65.4966V84H60.792ZM90.4358 71.5227L86.004 71.7955C85.9282 71.4167 85.7653 71.0758 85.5153 70.7727C85.2653 70.4621 84.9358 70.2159 84.5267 70.0341C84.1252 69.8447 83.6441 69.75 83.0835 69.75C82.3335 69.75 81.7009 69.9091 81.1858 70.2273C80.6706 70.5379 80.4131 70.9545 80.4131 71.4773C80.4131 71.8939 80.5797 72.2462 80.9131 72.5341C81.2464 72.822 81.8184 73.053 82.629 73.2273L85.7881 73.8636C87.485 74.2121 88.7502 74.7727 89.5835 75.5455C90.4169 76.3182 90.8335 77.3333 90.8335 78.5909C90.8335 79.7348 90.4964 80.7386 89.8222 81.6023C89.1555 82.4659 88.2388 83.1402 87.0722 83.625C85.9131 84.1023 84.5759 84.3409 83.0608 84.3409C80.7502 84.3409 78.9093 83.8598 77.5381 82.8977C76.1744 81.928 75.3752 80.6098 75.1403 78.9432L79.9017 78.6932C80.0456 79.3977 80.3941 79.9356 80.9472 80.3068C81.5002 80.6705 82.2085 80.8523 83.0722 80.8523C83.9206 80.8523 84.6025 80.6894 85.1176 80.3636C85.6403 80.0303 85.9055 79.6023 85.9131 79.0795C85.9055 78.6402 85.7199 78.2803 85.3563 78C84.9926 77.7121 84.432 77.4924 83.6744 77.3409L80.6517 76.7386C78.9472 76.3977 77.6782 75.8068 76.8449 74.9659C76.0191 74.125 75.6063 73.053 75.6063 71.75C75.6063 70.6288 75.9093 69.6629 76.5153 68.8523C77.129 68.0417 77.9888 67.4167 79.0949 66.9773C80.2085 66.5379 81.5116 66.3182 83.004 66.3182C85.2085 66.3182 86.9434 66.7841 88.2085 67.7159C89.4813 68.6477 90.2237 69.9167 90.4358 71.5227ZM101.566 66.5455V70.1818H91.0545V66.5455H101.566ZM93.4409 62.3636H98.2818V78.6364C98.2818 79.0833 98.35 79.4318 98.4864 79.6818C98.6227 79.9242 98.8121 80.0947 99.0545 80.1932C99.3045 80.2917 99.5924 80.3409 99.9182 80.3409C100.145 80.3409 100.373 80.322 100.6 80.2841C100.827 80.2386 101.002 80.2045 101.123 80.1818L101.884 83.7841C101.642 83.8598 101.301 83.947 100.861 84.0455C100.422 84.1515 99.8879 84.2159 99.2591 84.2386C98.0924 84.2841 97.0697 84.1288 96.1909 83.7727C95.3197 83.4167 94.6417 82.8636 94.1568 82.1136C93.672 81.3636 93.4333 80.4167 93.4409 79.2727V62.3636ZM108.097 84.3295C106.983 84.3295 105.991 84.1364 105.119 83.75C104.248 83.3561 103.559 82.7765 103.051 82.0114C102.551 81.2386 102.301 80.2765 102.301 79.125C102.301 78.1553 102.479 77.3409 102.835 76.6818C103.191 76.0227 103.676 75.4924 104.29 75.0909C104.903 74.6894 105.6 74.3864 106.381 74.1818C107.169 73.9773 107.994 73.8333 108.858 73.75C109.873 73.6439 110.691 73.5455 111.312 73.4545C111.934 73.3561 112.384 73.2121 112.665 73.0227C112.945 72.8333 113.085 72.553 113.085 72.1818V72.1136C113.085 71.3939 112.858 70.8371 112.403 70.4432C111.956 70.0492 111.32 69.8523 110.494 69.8523C109.623 69.8523 108.93 70.0455 108.415 70.4318C107.9 70.8106 107.559 71.2879 107.392 71.8636L102.915 71.5C103.142 70.4394 103.589 69.5227 104.256 68.75C104.922 67.9697 105.782 67.3712 106.835 66.9545C107.896 66.5303 109.123 66.3182 110.517 66.3182C111.487 66.3182 112.415 66.4318 113.301 66.6591C114.195 66.8864 114.987 67.2386 115.676 67.7159C116.373 68.1932 116.922 68.8068 117.324 69.5568C117.725 70.2992 117.926 71.1894 117.926 72.2273V84H113.335V81.5795H113.199C112.919 82.125 112.544 82.6061 112.074 83.0227C111.604 83.4318 111.04 83.7538 110.381 83.9886C109.722 84.2159 108.96 84.3295 108.097 84.3295ZM109.483 80.9886C110.195 80.9886 110.824 80.8485 111.369 80.5682C111.915 80.2803 112.343 79.8939 112.653 79.4091C112.964 78.9242 113.119 78.375 113.119 77.7614V75.9091C112.968 76.0076 112.759 76.0985 112.494 76.1818C112.237 76.2576 111.945 76.3295 111.619 76.3977C111.294 76.4583 110.968 76.5152 110.642 76.5682C110.316 76.6136 110.021 76.6553 109.756 76.6932C109.188 76.7765 108.691 76.9091 108.267 77.0909C107.843 77.2727 107.513 77.5189 107.278 77.8295C107.044 78.1326 106.926 78.5114 106.926 78.9659C106.926 79.625 107.165 80.1288 107.642 80.4773C108.127 80.8182 108.741 80.9886 109.483 80.9886ZM129.468 66.5455V70.1818H118.695V66.5455H129.468ZM121.161 84V65.2841C121.161 64.0189 121.408 62.9697 121.9 62.1364C122.4 61.303 123.082 60.678 123.945 60.2614C124.809 59.8447 125.79 59.6364 126.889 59.6364C127.631 59.6364 128.309 59.6932 128.923 59.8068C129.544 59.9205 130.006 60.0227 130.309 60.1136L129.445 63.75C129.256 63.6894 129.021 63.6326 128.741 63.5795C128.468 63.5265 128.188 63.5 127.9 63.5C127.188 63.5 126.692 63.6667 126.411 64C126.131 64.3258 125.991 64.7841 125.991 65.375V84H121.161ZM140.212 66.5455V70.1818H129.439V66.5455H140.212ZM131.905 84V65.2841C131.905 64.0189 132.151 62.9697 132.644 62.1364C133.144 61.303 133.826 60.678 134.689 60.2614C135.553 59.8447 136.534 59.6364 137.632 59.6364C138.375 59.6364 139.053 59.6932 139.666 59.8068C140.288 59.9205 140.75 60.0227 141.053 60.1136L140.189 63.75C140 63.6894 139.765 63.6326 139.485 63.5795C139.212 63.5265 138.932 63.5 138.644 63.5C137.932 63.5 137.435 63.6667 137.155 64C136.875 64.3258 136.735 64.7841 136.735 65.375V84H131.905Z" fill="#16161D"/>
<path d="M182.17 84.1591C181.39 84.1591 180.693 84.0246 180.08 83.7557C179.47 83.4867 178.987 83.1136 178.631 82.6364C178.278 82.1553 178.089 81.5985 178.062 80.9659H179.847C179.869 81.3106 179.985 81.6098 180.193 81.8636C180.405 82.1136 180.682 82.3068 181.023 82.4432C181.364 82.5795 181.742 82.6477 182.159 82.6477C182.617 82.6477 183.023 82.5682 183.375 82.4091C183.731 82.25 184.009 82.0284 184.21 81.7443C184.411 81.4564 184.511 81.125 184.511 80.75C184.511 80.3598 184.411 80.017 184.21 79.7216C184.013 79.4223 183.723 79.1875 183.341 79.017C182.962 78.8466 182.504 78.7614 181.966 78.7614H180.983V77.3295H181.966C182.398 77.3295 182.777 77.2519 183.102 77.0966C183.432 76.9413 183.689 76.7254 183.875 76.4489C184.061 76.1686 184.153 75.8409 184.153 75.4659C184.153 75.1061 184.072 74.7936 183.909 74.5284C183.75 74.2595 183.523 74.0492 183.227 73.8977C182.936 73.7462 182.591 73.6705 182.193 73.6705C181.814 73.6705 181.46 73.7405 181.131 73.8807C180.805 74.017 180.54 74.214 180.335 74.4716C180.131 74.7254 180.021 75.0303 180.006 75.3864H178.307C178.326 74.7576 178.511 74.2045 178.864 73.7273C179.22 73.25 179.689 72.8769 180.273 72.608C180.856 72.339 181.504 72.2045 182.216 72.2045C182.962 72.2045 183.606 72.3504 184.148 72.642C184.693 72.9299 185.114 73.3144 185.409 73.7955C185.708 74.2765 185.856 74.803 185.852 75.375C185.856 76.0265 185.674 76.5795 185.307 77.0341C184.943 77.4886 184.458 77.7936 183.852 77.9489V78.0398C184.625 78.1572 185.223 78.464 185.648 78.9602C186.076 79.4564 186.288 80.072 186.284 80.8068C186.288 81.447 186.11 82.0208 185.75 82.5284C185.394 83.036 184.907 83.4356 184.29 83.7273C183.672 84.0152 182.966 84.1591 182.17 84.1591ZM189.23 84.108C188.92 84.108 188.652 83.9981 188.429 83.7784C188.205 83.5549 188.094 83.286 188.094 82.9716C188.094 82.661 188.205 82.3958 188.429 82.1761C188.652 81.9527 188.92 81.8409 189.23 81.8409C189.541 81.8409 189.808 81.9527 190.031 82.1761C190.255 82.3958 190.366 82.661 190.366 82.9716C190.366 83.1799 190.313 83.3712 190.207 83.5455C190.105 83.7159 189.969 83.8523 189.798 83.9545C189.628 84.0568 189.438 84.108 189.23 84.108ZM192.619 84V82.7273L196.557 78.6477C196.977 78.2045 197.324 77.8163 197.597 77.483C197.873 77.1458 198.08 76.8258 198.216 76.5227C198.352 76.2197 198.42 75.8977 198.42 75.5568C198.42 75.1705 198.33 74.8371 198.148 74.5568C197.966 74.2727 197.718 74.0549 197.403 73.9034C197.089 73.7481 196.735 73.6705 196.341 73.6705C195.924 73.6705 195.561 73.7557 195.25 73.9261C194.939 74.0966 194.701 74.3371 194.534 74.6477C194.367 74.9583 194.284 75.322 194.284 75.7386H192.608C192.608 75.0303 192.771 74.411 193.097 73.8807C193.422 73.3504 193.869 72.9394 194.438 72.6477C195.006 72.3523 195.652 72.2045 196.375 72.2045C197.106 72.2045 197.75 72.3504 198.307 72.642C198.867 72.9299 199.305 73.3239 199.619 73.8239C199.934 74.3201 200.091 74.8807 200.091 75.5057C200.091 75.9375 200.009 76.3598 199.847 76.7727C199.688 77.1856 199.409 77.6458 199.011 78.1534C198.614 78.6572 198.061 79.2689 197.352 79.9886L195.04 82.4091V82.4943H200.278V84H192.619ZM201.938 81.7273V80.3068L206.966 72.3636H208.085V74.4545H207.375L203.778 80.1477V80.2386H210.67V81.7273H201.938ZM207.455 84V81.2955L207.466 80.6477V72.3636H209.131V84H207.455ZM218.724 81.8182V81.2045C218.724 80.7652 218.815 80.3636 218.997 80C219.183 79.6326 219.452 79.339 219.804 79.1193C220.16 78.8958 220.59 78.7841 221.094 78.7841C221.609 78.7841 222.041 78.8939 222.389 79.1136C222.738 79.3333 223.001 79.6269 223.179 79.9943C223.361 80.3617 223.452 80.7652 223.452 81.2045V81.8182C223.452 82.2576 223.361 82.661 223.179 83.0284C222.997 83.392 222.73 83.6856 222.378 83.9091C222.029 84.1288 221.601 84.2386 221.094 84.2386C220.582 84.2386 220.151 84.1288 219.798 83.9091C219.446 83.6856 219.179 83.392 218.997 83.0284C218.815 82.661 218.724 82.2576 218.724 81.8182ZM220.048 81.2045V81.8182C220.048 82.1439 220.126 82.4394 220.281 82.7045C220.437 82.9697 220.707 83.1023 221.094 83.1023C221.476 83.1023 221.743 82.9697 221.895 82.7045C222.046 82.4394 222.122 82.1439 222.122 81.8182V81.2045C222.122 80.8788 222.048 80.5833 221.901 80.3182C221.757 80.053 221.488 79.9205 221.094 79.9205C220.715 79.9205 220.446 80.053 220.287 80.3182C220.128 80.5833 220.048 80.8788 220.048 81.2045ZM212.872 75.1591V74.5455C212.872 74.1061 212.963 73.7027 213.145 73.3352C213.33 72.9678 213.599 72.6742 213.952 72.4545C214.308 72.2348 214.738 72.125 215.241 72.125C215.757 72.125 216.188 72.2348 216.537 72.4545C216.885 72.6742 217.149 72.9678 217.327 73.3352C217.505 73.7027 217.594 74.1061 217.594 74.5455V75.1591C217.594 75.5985 217.503 76.0019 217.321 76.3693C217.143 76.733 216.878 77.0265 216.526 77.25C216.177 77.4697 215.749 77.5795 215.241 77.5795C214.726 77.5795 214.293 77.4697 213.94 77.25C213.592 77.0265 213.327 76.733 213.145 76.3693C212.963 76.0019 212.872 75.5985 212.872 75.1591ZM214.202 74.5455V75.1591C214.202 75.4848 214.277 75.7803 214.429 76.0455C214.584 76.3106 214.855 76.4432 215.241 76.4432C215.62 76.4432 215.885 76.3106 216.037 76.0455C216.192 75.7803 216.27 75.4848 216.27 75.1591V74.5455C216.27 74.2197 216.196 73.9242 216.048 73.6591C215.901 73.3939 215.632 73.2614 215.241 73.2614C214.863 73.2614 214.594 73.3939 214.435 73.6591C214.279 73.9242 214.202 74.2197 214.202 74.5455ZM213.412 84L221.412 72.3636H222.77L214.77 84H213.412Z" fill="#42BD53"/>
<path d="M234.465 72.7232L238.402 76.6607C238.525 76.784 238.595 76.9512 238.595 77.1255C238.595 77.2999 238.525 77.4671 238.402 77.5904C238.279 77.7137 238.112 77.7829 237.937 77.7829C237.763 77.7829 237.596 77.7137 237.472 77.5904L234.657 74.7734L234.657 82.8125C234.657 82.9865 234.587 83.1535 234.464 83.2765C234.341 83.3996 234.174 83.4688 234 83.4688C233.826 83.4688 233.659 83.3996 233.536 83.2765C233.413 83.1535 233.344 82.9865 233.344 82.8125L233.344 74.7734L230.527 77.5893C230.403 77.7126 230.236 77.7818 230.062 77.7818C229.887 77.7818 229.72 77.7126 229.597 77.5893C229.474 77.466 229.404 77.2988 229.404 77.1245C229.404 76.9501 229.474 76.7829 229.597 76.6596L233.534 72.7221C233.595 72.6609 233.668 72.6124 233.748 72.5793C233.828 72.5462 233.913 72.5293 234 72.5294C234.086 72.5295 234.172 72.5466 234.251 72.5799C234.331 72.6132 234.404 72.6619 234.465 72.7232Z" fill="#42BD53"/>
<path d="M316 33.375C316.519 33.375 317.027 33.529 317.458 33.8174C317.89 34.1058 318.227 34.5158 318.425 34.9955C318.624 35.4751 318.676 36.0029 318.575 36.5121C318.473 37.0213 318.223 37.489 317.856 37.8562C317.489 38.2233 317.021 38.4733 316.512 38.5746C316.003 38.6758 315.475 38.6239 314.995 38.4252C314.516 38.2265 314.106 37.89 313.817 37.4584C313.529 37.0267 313.375 36.5192 313.375 36C313.375 35.3038 313.652 34.6361 314.144 34.1438C314.636 33.6516 315.304 33.375 316 33.375ZM311.125 36C311.125 35.4808 310.971 34.9733 310.683 34.5416C310.394 34.1099 309.984 33.7735 309.505 33.5748C309.025 33.3761 308.497 33.3242 307.988 33.4254C307.479 33.5267 307.011 33.7767 306.644 34.1438C306.277 34.511 306.027 34.9787 305.925 35.4879C305.824 35.9971 305.876 36.5249 306.075 37.0045C306.273 37.4842 306.61 37.8942 307.042 38.1826C307.473 38.471 307.981 38.625 308.5 38.625C309.196 38.625 309.864 38.3484 310.356 37.8562C310.848 37.3639 311.125 36.6962 311.125 36ZM320.875 36C320.875 36.5192 321.029 37.0267 321.317 37.4584C321.606 37.89 322.016 38.2265 322.495 38.4252C322.975 38.6239 323.503 38.6758 324.012 38.5746C324.521 38.4733 324.989 38.2233 325.356 37.8562C325.723 37.489 325.973 37.0213 326.075 36.5121C326.176 36.0029 326.124 35.4751 325.925 34.9955C325.727 34.5158 325.39 34.1058 324.958 33.8174C324.527 33.529 324.019 33.375 323.5 33.375C322.804 33.375 322.136 33.6516 321.644 34.1438C321.152 34.6361 320.875 35.3038 320.875 36Z" fill="#A8A8BD"/>
<path d="M32.9682 123.139C32.3849 123.139 31.8596 123.023 31.3922 122.791C30.9249 122.559 30.5504 122.241 30.2686 121.837C29.9869 121.432 29.8328 120.972 29.8063 120.455H30.9995C31.0459 120.915 31.2547 121.296 31.6259 121.598C32.0004 121.896 32.4479 122.045 32.9682 122.045C33.3858 122.045 33.757 121.948 34.0819 121.752C34.41 121.557 34.6668 121.288 34.8525 120.947C35.0414 120.602 35.1358 120.213 35.1358 119.778C35.1358 119.334 35.0381 118.938 34.8425 118.59C34.6503 118.239 34.3851 117.962 34.0471 117.76C33.709 117.558 33.3229 117.455 32.8887 117.452C32.5771 117.448 32.2573 117.496 31.9292 117.596C31.601 117.692 31.3309 117.816 31.1188 117.969L29.9654 117.83L30.5819 112.818H35.8716V113.912H31.6159L31.258 116.915H31.3176C31.5265 116.749 31.7883 116.612 32.1032 116.502C32.418 116.393 32.7462 116.338 33.0875 116.338C33.7106 116.338 34.2658 116.487 34.753 116.786C35.2435 117.08 35.628 117.485 35.9064 117.999C36.1882 118.512 36.329 119.099 36.329 119.759C36.329 120.408 36.1832 120.988 35.8915 121.499C35.6032 122.006 35.2054 122.407 34.6983 122.702C34.1912 122.993 33.6145 123.139 32.9682 123.139ZM41.625 123.139C40.8759 123.139 40.2379 122.935 39.7109 122.528C39.1839 122.117 38.7813 121.522 38.5028 120.743C38.2244 119.961 38.0852 119.016 38.0852 117.909C38.0852 116.809 38.2244 115.869 38.5028 115.09C38.7846 114.308 39.1889 113.711 39.7159 113.3C40.2462 112.886 40.8826 112.679 41.625 112.679C42.3674 112.679 43.0021 112.886 43.5291 113.3C44.0594 113.711 44.4638 114.308 44.7422 115.09C45.0239 115.869 45.1648 116.809 45.1648 117.909C45.1648 119.016 45.0256 119.961 44.7472 120.743C44.4688 121.522 44.0661 122.117 43.5391 122.528C43.0121 122.935 42.3741 123.139 41.625 123.139ZM41.625 122.045C42.3674 122.045 42.9441 121.687 43.3551 120.972C43.7661 120.256 43.9716 119.235 43.9716 117.909C43.9716 117.027 43.8771 116.277 43.6882 115.657C43.5026 115.037 43.2341 114.565 42.8828 114.24C42.5348 113.915 42.1155 113.753 41.625 113.753C40.8892 113.753 40.3142 114.116 39.8999 114.842C39.4856 115.564 39.2784 116.587 39.2784 117.909C39.2784 118.791 39.3712 119.54 39.5568 120.156C39.7424 120.773 40.0092 121.242 40.3572 121.563C40.7086 121.885 41.1312 122.045 41.625 122.045Z" fill="#8B8BA7"/>
<path d="M29.0829 160.712V159.698L33.5574 152.618H34.2931V154.189H33.796L30.4153 159.539V159.618H36.4409V160.712H29.0829ZM33.8755 162.8V160.404V159.931V152.618H35.0488V162.8H33.8755ZM41.625 162.939C40.8759 162.939 40.2379 162.735 39.7109 162.328C39.1839 161.917 38.7813 161.322 38.5028 160.543C38.2244 159.761 38.0852 158.816 38.0852 157.709C38.0852 156.609 38.2244 155.669 38.5028 154.89C38.7846 154.108 39.1889 153.511 39.7159 153.1C40.2462 152.686 40.8826 152.479 41.625 152.479C42.3674 152.479 43.0021 152.686 43.5291 153.1C44.0594 153.511 44.4638 154.108 44.7422 154.89C45.0239 155.669 45.1648 156.609 45.1648 157.709C45.1648 158.816 45.0256 159.761 44.7472 160.543C44.4688 161.322 44.0661 161.917 43.5391 162.328C43.0121 162.735 42.3741 162.939 41.625 162.939ZM41.625 161.846C42.3674 161.846 42.9441 161.488 43.3551 160.772C43.7661 160.056 43.9716 159.035 43.9716 157.709C43.9716 156.828 43.8771 156.077 43.6882 155.457C43.5026 154.837 43.2341 154.365 42.8828 154.04C42.5348 153.715 42.1155 153.553 41.625 153.553C40.8892 153.553 40.3142 153.916 39.8999 154.642C39.4856 155.364 39.2784 156.387 39.2784 157.709C39.2784 158.591 39.3712 159.34 39.5568 159.956C39.7424 160.573 40.0092 161.042 40.3572 161.363C40.7086 161.685 41.1312 161.846 41.625 161.846Z" fill="#8B8BA7"/>
<path d="M32.8303 202.739C32.174 202.739 31.589 202.627 31.0753 202.401C30.5649 202.176 30.1589 201.863 29.8572 201.462C29.5589 201.057 29.3965 200.588 29.37 200.055H30.6229C30.6494 200.383 30.7621 200.666 30.9609 200.905C31.1598 201.14 31.42 201.322 31.7415 201.452C32.063 201.581 32.4193 201.646 32.8104 201.646C33.2479 201.646 33.6357 201.569 33.9737 201.417C34.3118 201.264 34.5769 201.052 34.7692 200.78C34.9614 200.509 35.0575 200.194 35.0575 199.836C35.0575 199.461 34.9647 199.132 34.7791 198.847C34.5935 198.558 34.3217 198.333 33.9638 198.17C33.6058 198.008 33.1683 197.927 32.6513 197.927H31.8359V196.833H32.6513C33.0556 196.833 33.4103 196.76 33.7152 196.614C34.0234 196.468 34.2637 196.263 34.4361 195.998C34.6117 195.733 34.6996 195.421 34.6996 195.063C34.6996 194.718 34.6233 194.419 34.4709 194.163C34.3184 193.908 34.103 193.709 33.8246 193.567C33.5495 193.424 33.2247 193.353 32.8501 193.353C32.4988 193.353 32.1674 193.418 31.8558 193.547C31.5476 193.673 31.2957 193.857 31.1001 194.099C30.9046 194.337 30.7985 194.626 30.782 194.964H29.5888C29.6087 194.43 29.7694 193.963 30.071 193.562C30.3726 193.157 30.767 192.843 31.2543 192.617C31.7448 192.392 32.2834 192.279 32.87 192.279C33.4998 192.279 34.04 192.407 34.4908 192.662C34.9415 192.914 35.2879 193.247 35.5298 193.661C35.7718 194.075 35.8928 194.523 35.8928 195.004C35.8928 195.577 35.742 196.066 35.4403 196.47C35.142 196.874 34.736 197.155 34.2223 197.31V197.39C34.8653 197.496 35.3674 197.769 35.7287 198.21C36.09 198.648 36.2706 199.19 36.2706 199.836C36.2706 200.389 36.1198 200.887 35.8182 201.327C35.5199 201.765 35.1122 202.11 34.5952 202.361C34.0781 202.613 33.4898 202.739 32.8303 202.739ZM41.625 202.739C40.8759 202.739 40.2379 202.535 39.7109 202.128C39.1839 201.717 38.7813 201.122 38.5028 200.343C38.2244 199.561 38.0852 198.616 38.0852 197.509C38.0852 196.409 38.2244 195.469 38.5028 194.69C38.7846 193.908 39.1889 193.312 39.7159 192.901C40.2462 192.486 40.8826 192.279 41.625 192.279C42.3674 192.279 43.0021 192.486 43.5291 192.901C44.0594 193.312 44.4638 193.908 44.7422 194.69C45.0239 195.469 45.1648 196.409 45.1648 197.509C45.1648 198.616 45.0256 199.561 44.7472 200.343C44.4688 201.122 44.0661 201.717 43.5391 202.128C43.0121 202.535 42.3741 202.739 41.625 202.739ZM41.625 201.646C42.3674 201.646 42.9441 201.288 43.3551 200.572C43.7661 199.856 43.9716 198.835 43.9716 197.509C43.9716 196.628 43.8771 195.877 43.6882 195.257C43.5026 194.637 43.2341 194.165 42.8828 193.84C42.5348 193.515 42.1155 193.353 41.625 193.353C40.8892 193.353 40.3142 193.716 39.8999 194.442C39.4856 195.164 39.2784 196.187 39.2784 197.509C39.2784 198.391 39.3712 199.14 39.5568 199.756C39.7424 200.373 40.0092 200.842 40.3572 201.163C40.7086 201.485 41.1312 201.646 41.625 201.646Z" fill="#8B8BA7"/>
<path d="M29.8274 242.4V241.505L33.1882 237.826C33.5826 237.395 33.9074 237.021 34.1626 236.702C34.4179 236.381 34.6068 236.079 34.7294 235.798C34.8554 235.513 34.9183 235.214 34.9183 234.903C34.9183 234.545 34.8321 234.235 34.6598 233.973C34.4908 233.711 34.2588 233.509 33.9638 233.367C33.6688 233.224 33.3374 233.153 32.9695 233.153C32.5784 233.153 32.237 233.234 31.9453 233.396C31.657 233.555 31.4332 233.779 31.2741 234.068C31.1184 234.356 31.0405 234.694 31.0405 235.082H29.8672C29.8672 234.485 30.0047 233.961 30.2798 233.511C30.5549 233.06 30.9295 232.709 31.4034 232.457C31.8807 232.205 32.416 232.079 33.0092 232.079C33.6058 232.079 34.1345 232.205 34.5952 232.457C35.0559 232.709 35.4171 233.048 35.679 233.476C35.9408 233.903 36.0717 234.379 36.0717 234.903C36.0717 235.277 36.0038 235.644 35.8679 236.001C35.7353 236.356 35.5033 236.752 35.1719 237.19C34.8438 237.624 34.388 238.154 33.8047 238.781L31.5178 241.227V241.306H36.2507V242.4H29.8274ZM41.625 242.539C40.8759 242.539 40.2379 242.335 39.7109 241.928C39.1839 241.517 38.7813 240.922 38.5028 240.143C38.2244 239.361 38.0852 238.416 38.0852 237.309C38.0852 236.209 38.2244 235.269 38.5028 234.49C38.7846 233.708 39.1889 233.111 39.7159 232.7C40.2462 232.286 40.8826 232.079 41.625 232.079C42.3674 232.079 43.0021 232.286 43.5291 232.7C44.0594 233.111 44.4638 233.708 44.7422 234.49C45.0239 235.269 45.1648 236.209 45.1648 237.309C45.1648 238.416 45.0256 239.361 44.7472 240.143C44.4688 240.922 44.0661 241.517 43.5391 241.928C43.0121 242.335 42.3741 242.539 41.625 242.539ZM41.625 241.445C42.3674 241.445 42.9441 241.087 43.3551 240.371C43.7661 239.656 43.9716 238.635 43.9716 237.309C43.9716 236.427 43.8771 235.677 43.6882 235.057C43.5026 234.437 43.2341 233.965 42.8828 233.64C42.5348 233.315 42.1155 233.153 41.625 233.153C40.8892 233.153 40.3142 233.516 39.8999 234.242C39.4856 234.964 39.2784 235.987 39.2784 237.309C39.2784 238.191 39.3712 238.94 39.5568 239.556C39.7424 240.173 40.0092 240.642 40.3572 240.963C40.7086 241.285 41.1312 241.445 41.625 241.445Z" fill="#8B8BA7"/>
<path d="M35.3757 272.018V282.2H34.1428V273.311H34.0831L31.5973 274.961V273.708L34.1428 272.018H35.3757ZM41.625 282.339C40.8759 282.339 40.2379 282.135 39.7109 281.728C39.1839 281.317 38.7813 280.722 38.5028 279.943C38.2244 279.161 38.0852 278.216 38.0852 277.109C38.0852 276.009 38.2244 275.069 38.5028 274.29C38.7846 273.508 39.1889 272.911 39.7159 272.5C40.2462 272.086 40.8826 271.879 41.625 271.879C42.3674 271.879 43.0021 272.086 43.5291 272.5C44.0594 272.911 44.4638 273.508 44.7422 274.29C45.0239 275.069 45.1648 276.009 45.1648 277.109C45.1648 278.216 45.0256 279.161 44.7472 279.943C44.4688 280.722 44.0661 281.317 43.5391 281.728C43.0121 282.135 42.3741 282.339 41.625 282.339ZM41.625 281.245C42.3674 281.245 42.9441 280.887 43.3551 280.172C43.7661 279.456 43.9716 278.435 43.9716 277.109C43.9716 276.227 43.8771 275.477 43.6882 274.857C43.5026 274.237 43.2341 273.765 42.8828 273.44C42.5348 273.115 42.1155 272.953 41.625 272.953C40.8892 272.953 40.3142 273.316 39.8999 274.042C39.4856 274.764 39.2784 275.787 39.2784 277.109C39.2784 277.991 39.3712 278.74 39.5568 279.356C39.7424 279.973 40.0092 280.442 40.3572 280.763C40.7086 281.085 41.1312 281.245 41.625 281.245Z" fill="#8B8BA7"/>
<path d="M41.625 322.139C40.8759 322.139 40.2379 321.935 39.7109 321.528C39.1839 321.117 38.7813 320.522 38.5028 319.743C38.2244 318.961 38.0852 318.016 38.0852 316.909C38.0852 315.809 38.2244 314.869 38.5028 314.09C38.7846 313.308 39.1889 312.711 39.7159 312.3C40.2462 311.886 40.8826 311.679 41.625 311.679C42.3674 311.679 43.0021 311.886 43.5291 312.3C44.0594 312.711 44.4638 313.308 44.7422 314.09C45.0239 314.869 45.1648 315.809 45.1648 316.909C45.1648 318.016 45.0256 318.961 44.7472 319.743C44.4688 320.522 44.0661 321.117 43.5391 321.528C43.0121 321.935 42.3741 322.139 41.625 322.139ZM41.625 321.045C42.3674 321.045 42.9441 320.687 43.3551 319.972C43.7661 319.256 43.9716 318.235 43.9716 316.909C43.9716 316.027 43.8771 315.277 43.6882 314.657C43.5026 314.037 43.2341 313.565 42.8828 313.24C42.5348 312.915 42.1155 312.753 41.625 312.753C40.8892 312.753 40.3142 313.116 39.8999 313.842C39.4856 314.564 39.2784 315.587 39.2784 316.909C39.2784 317.791 39.3712 318.54 39.5568 319.156C39.7424 319.773 40.0092 320.242 40.3572 320.563C40.7086 320.885 41.1312 321.045 41.625 321.045Z" fill="#8B8BA7"/>
<line x1="67" y1="116.5" x2="326" y2="116.5" stroke="#C5C5D3" stroke-dasharray="6 6"/>
<line x1="67" y1="156.5" x2="326" y2="156.5" stroke="#C5C5D3" stroke-dasharray="6 6"/>
<line x1="67" y1="196.5" x2="326" y2="196.5" stroke="#C5C5D3" stroke-dasharray="6 6"/>
<line x1="67" y1="236.5" x2="326" y2="236.5" stroke="#C5C5D3" stroke-dasharray="6 6"/>
<line x1="67" y1="276.5" x2="326" y2="276.5" stroke="#C5C5D3" stroke-dasharray="6 6"/>
<line x1="67" y1="321.5" x2="326" y2="321.5" stroke="#C5C5D3" stroke-dasharray="6 6"/>
<path d="M68.4244 337.818H69.896L73.3562 346.27H73.4755L76.9357 337.818H78.4073V348H77.2539V340.264H77.1545L73.9727 348H72.859L69.6772 340.264H69.5778V348H68.4244V337.818ZM83.8226 348.159C83.1332 348.159 82.5284 347.995 82.008 347.667C81.4909 347.339 81.0866 346.88 80.7949 346.29C80.5066 345.7 80.3624 345.01 80.3624 344.222C80.3624 343.426 80.5066 342.732 80.7949 342.138C81.0866 341.545 81.4909 341.085 82.008 340.756C82.5284 340.428 83.1332 340.264 83.8226 340.264C84.512 340.264 85.1152 340.428 85.6323 340.756C86.1526 341.085 86.557 341.545 86.8453 342.138C87.137 342.732 87.2828 343.426 87.2828 344.222C87.2828 345.01 87.137 345.7 86.8453 346.29C86.557 346.88 86.1526 347.339 85.6323 347.667C85.1152 347.995 84.512 348.159 83.8226 348.159ZM83.8226 347.105C84.3463 347.105 84.7772 346.971 85.1152 346.702C85.4533 346.434 85.7035 346.081 85.8659 345.643C86.0284 345.206 86.1096 344.732 86.1096 344.222C86.1096 343.711 86.0284 343.236 85.8659 342.795C85.7035 342.354 85.4533 341.998 85.1152 341.726C84.7772 341.454 84.3463 341.318 83.8226 341.318C83.2989 341.318 82.8681 341.454 82.53 341.726C82.1919 341.998 81.9417 342.354 81.7793 342.795C81.6169 343.236 81.5357 343.711 81.5357 344.222C81.5357 344.732 81.6169 345.206 81.7793 345.643C81.9417 346.081 82.1919 346.434 82.53 346.702C82.8681 346.971 83.2989 347.105 83.8226 347.105Z" fill="#8B8BA7"/>
<path d="M111.244 338.9V337.976H118.426V338.9H115.332V348H114.324V338.9H111.244ZM123.53 341.224H124.496V348H123.656L123.53 346.852C123.152 347.636 122.214 348.168 121.15 348.168C119.554 348.168 118.686 347.076 118.686 345.424V341.21H119.666V345.116C119.666 346.726 120.38 347.3 121.458 347.3C122.76 347.3 123.53 346.432 123.53 344.822V341.224Z" fill="#8B8BA7"/>
<path d="M151.356 348L148.572 337.818H149.825L151.952 346.111H152.052L154.219 337.818H155.612L157.779 346.111H157.879L160.006 337.818H161.259L158.475 348H157.202L154.955 339.886H154.876L152.629 348H151.356ZM165.127 348.159C164.391 348.159 163.757 347.997 163.223 347.672C162.693 347.344 162.283 346.886 161.995 346.3C161.71 345.71 161.567 345.024 161.567 344.241C161.567 343.459 161.71 342.77 161.995 342.173C162.283 341.573 162.684 341.106 163.198 340.771C163.715 340.433 164.318 340.264 165.008 340.264C165.406 340.264 165.798 340.33 166.186 340.463C166.574 340.596 166.927 340.811 167.245 341.109C167.563 341.404 167.817 341.795 168.006 342.283C168.195 342.77 168.289 343.37 168.289 344.082V344.58H162.403V343.565H167.096C167.096 343.134 167.01 342.75 166.837 342.412C166.668 342.074 166.426 341.807 166.112 341.612C165.8 341.416 165.432 341.318 165.008 341.318C164.54 341.318 164.136 341.434 163.795 341.666C163.457 341.895 163.196 342.193 163.014 342.561C162.832 342.929 162.741 343.323 162.741 343.744V344.42C162.741 344.997 162.84 345.486 163.039 345.887C163.241 346.285 163.521 346.588 163.879 346.797C164.237 347.002 164.653 347.105 165.127 347.105C165.435 347.105 165.714 347.062 165.962 346.976C166.214 346.886 166.431 346.754 166.614 346.578C166.796 346.399 166.937 346.177 167.036 345.912L168.17 346.23C168.05 346.615 167.85 346.953 167.568 347.244C167.286 347.533 166.938 347.758 166.524 347.92C166.11 348.08 165.644 348.159 165.127 348.159Z" fill="#8B8BA7"/>
<path d="M192.922 338.912V337.818H200.559V338.912H197.357V348H196.124V338.912H192.922ZM203.476 343.406V348H202.302V337.818H203.476V341.557H203.575C203.754 341.162 204.023 340.849 204.381 340.617C204.742 340.382 205.222 340.264 205.822 340.264C206.343 340.264 206.798 340.369 207.189 340.577C207.581 340.783 207.884 341.099 208.099 341.527C208.318 341.951 208.427 342.491 208.427 343.148V348H207.254V343.227C207.254 342.621 207.097 342.152 206.782 341.82C206.47 341.486 206.038 341.318 205.484 341.318C205.1 341.318 204.755 341.399 204.45 341.562C204.148 341.724 203.91 341.961 203.734 342.273C203.562 342.584 203.476 342.962 203.476 343.406Z" fill="#8B8BA7"/>
<path d="M233.889 348V337.818H239.994V338.912H235.122V342.352H239.537V343.446H235.122V348H233.889ZM241.865 348V340.364H242.998V341.517H243.078C243.217 341.139 243.469 340.833 243.834 340.597C244.198 340.362 244.609 340.244 245.067 340.244C245.153 340.244 245.26 340.246 245.39 340.249C245.519 340.253 245.617 340.258 245.683 340.264V341.457C245.643 341.447 245.552 341.433 245.41 341.413C245.27 341.389 245.123 341.378 244.967 341.378C244.596 341.378 244.265 341.456 243.973 341.612C243.684 341.764 243.456 341.976 243.287 342.248C243.121 342.516 243.038 342.823 243.038 343.168V348H241.865Z" fill="#8B8BA7"/>
<path d="M275.485 340.364C275.425 339.86 275.183 339.469 274.759 339.19C274.335 338.912 273.814 338.773 273.198 338.773C272.747 338.773 272.353 338.846 272.015 338.991C271.68 339.137 271.418 339.338 271.229 339.593C271.043 339.848 270.951 340.138 270.951 340.463C270.951 340.735 271.015 340.969 271.145 341.164C271.277 341.356 271.446 341.517 271.652 341.646C271.857 341.772 272.073 341.877 272.298 341.96C272.523 342.039 272.73 342.104 272.919 342.153L273.953 342.432C274.219 342.501 274.514 342.598 274.838 342.72C275.167 342.843 275.48 343.01 275.778 343.222C276.08 343.431 276.328 343.7 276.524 344.028C276.719 344.356 276.817 344.759 276.817 345.236C276.817 345.786 276.673 346.283 276.385 346.727C276.1 347.171 275.682 347.524 275.132 347.786C274.585 348.048 273.92 348.179 273.138 348.179C272.409 348.179 271.778 348.061 271.244 347.826C270.714 347.591 270.296 347.263 269.991 346.842C269.69 346.421 269.519 345.932 269.479 345.375H270.752C270.785 345.759 270.914 346.078 271.14 346.33C271.368 346.578 271.657 346.764 272.005 346.886C272.356 347.006 272.734 347.065 273.138 347.065C273.609 347.065 274.031 346.989 274.406 346.837C274.78 346.681 275.077 346.465 275.296 346.19C275.515 345.912 275.624 345.587 275.624 345.216C275.624 344.878 275.529 344.603 275.341 344.391C275.152 344.179 274.903 344.006 274.595 343.874C274.287 343.741 273.953 343.625 273.596 343.526L272.343 343.168C271.547 342.939 270.917 342.612 270.453 342.188C269.989 341.764 269.757 341.209 269.757 340.523C269.757 339.953 269.912 339.455 270.22 339.031C270.531 338.604 270.949 338.272 271.473 338.037C272 337.798 272.588 337.679 273.238 337.679C273.894 337.679 274.477 337.797 274.988 338.032C275.498 338.264 275.902 338.582 276.201 338.987C276.502 339.391 276.661 339.85 276.678 340.364H275.485ZM280.932 348.179C280.448 348.179 280.009 348.088 279.615 347.906C279.22 347.72 278.907 347.453 278.675 347.105C278.443 346.754 278.327 346.33 278.327 345.832C278.327 345.395 278.413 345.04 278.586 344.768C278.758 344.493 278.988 344.278 279.277 344.122C279.565 343.966 279.883 343.85 280.231 343.774C280.583 343.695 280.936 343.632 281.29 343.585C281.754 343.526 282.131 343.481 282.419 343.451C282.711 343.418 282.923 343.363 283.055 343.287C283.191 343.211 283.259 343.078 283.259 342.889V342.849C283.259 342.359 283.125 341.978 282.856 341.706C282.591 341.434 282.189 341.298 281.648 341.298C281.088 341.298 280.649 341.421 280.331 341.666C280.013 341.911 279.789 342.173 279.66 342.452L278.546 342.054C278.745 341.59 279.01 341.229 279.341 340.97C279.676 340.708 280.041 340.526 280.435 340.423C280.833 340.317 281.224 340.264 281.608 340.264C281.854 340.264 282.135 340.294 282.454 340.354C282.775 340.41 283.085 340.528 283.383 340.707C283.685 340.886 283.935 341.156 284.134 341.517C284.333 341.878 284.432 342.362 284.432 342.969V348H283.259V346.966H283.199C283.12 347.132 282.987 347.309 282.802 347.498C282.616 347.687 282.369 347.848 282.061 347.98C281.753 348.113 281.376 348.179 280.932 348.179ZM281.111 347.125C281.575 347.125 281.966 347.034 282.285 346.852C282.606 346.669 282.848 346.434 283.01 346.146C283.176 345.857 283.259 345.554 283.259 345.236V344.162C283.209 344.222 283.1 344.276 282.931 344.326C282.765 344.372 282.573 344.414 282.354 344.45C282.139 344.483 281.928 344.513 281.723 344.54C281.521 344.563 281.357 344.583 281.231 344.599C280.926 344.639 280.641 344.704 280.376 344.793C280.114 344.879 279.902 345.01 279.739 345.186C279.58 345.358 279.501 345.594 279.501 345.892C279.501 346.3 279.651 346.608 279.953 346.817C280.258 347.022 280.644 347.125 281.111 347.125Z" fill="#8B8BA7"/>
<path d="M315.739 340.364C315.679 339.86 315.437 339.469 315.013 339.19C314.589 338.912 314.068 338.773 313.452 338.773C313.001 338.773 312.607 338.846 312.268 338.991C311.934 339.137 311.672 339.338 311.483 339.593C311.297 339.848 311.205 340.138 311.205 340.463C311.205 340.735 311.269 340.969 311.398 341.164C311.531 341.356 311.7 341.517 311.906 341.646C312.111 341.772 312.326 341.877 312.552 341.96C312.777 342.039 312.984 342.104 313.173 342.153L314.207 342.432C314.473 342.501 314.768 342.598 315.092 342.72C315.42 342.843 315.734 343.01 316.032 343.222C316.334 343.431 316.582 343.7 316.778 344.028C316.973 344.356 317.071 344.759 317.071 345.236C317.071 345.786 316.927 346.283 316.638 346.727C316.353 347.171 315.936 347.524 315.386 347.786C314.839 348.048 314.174 348.179 313.392 348.179C312.663 348.179 312.031 348.061 311.498 347.826C310.968 347.591 310.55 347.263 310.245 346.842C309.943 346.421 309.773 345.932 309.733 345.375H311.006C311.039 345.759 311.168 346.078 311.393 346.33C311.622 346.578 311.911 346.764 312.259 346.886C312.61 347.006 312.988 347.065 313.392 347.065C313.863 347.065 314.285 346.989 314.66 346.837C315.034 346.681 315.331 346.465 315.55 346.19C315.768 345.912 315.878 345.587 315.878 345.216C315.878 344.878 315.783 344.603 315.594 344.391C315.406 344.179 315.157 344.006 314.849 343.874C314.54 343.741 314.207 343.625 313.849 343.526L312.597 343.168C311.801 342.939 311.171 342.612 310.707 342.188C310.243 341.764 310.011 341.209 310.011 340.523C310.011 339.953 310.165 339.455 310.474 339.031C310.785 338.604 311.203 338.272 311.727 338.037C312.254 337.798 312.842 337.679 313.491 337.679C314.148 337.679 314.731 337.797 315.241 338.032C315.752 338.264 316.156 338.582 316.455 338.987C316.756 339.391 316.915 339.85 316.932 340.364H315.739ZM323.752 344.878V340.364H324.925V348H323.752V346.707H323.672C323.493 347.095 323.215 347.425 322.837 347.697C322.459 347.965 321.982 348.099 321.405 348.099C320.928 348.099 320.503 347.995 320.132 347.786C319.761 347.574 319.469 347.256 319.257 346.832C319.045 346.404 318.939 345.866 318.939 345.216V340.364H320.112V345.136C320.112 345.693 320.268 346.137 320.58 346.469C320.895 346.8 321.296 346.966 321.783 346.966C322.075 346.966 322.371 346.891 322.673 346.742C322.978 346.593 323.233 346.364 323.438 346.056C323.647 345.748 323.752 345.355 323.752 344.878Z" fill="#8B8BA7"/>
<path d="M72 159C72 155.686 74.6863 153 78 153C81.3137 153 84 155.686 84 159V322H72V159Z" fill="#6A0DAD" fill-opacity="0.3"/>
<path d="M113 223C113 219.686 115.686 217 119 217C122.314 217 125 219.686 125 223V322H113V223Z" fill="#6A0DAD" fill-opacity="0.3"/>
<path d="M154 189C154 185.686 156.686 183 160 183C163.314 183 166 185.686 166 189V322H154V189Z" fill="#6A0DAD" fill-opacity="0.3"/>
<path d="M199 279C199 275.686 201.686 273 205 273C208.314 273 211 275.686 211 279V322H199V279Z" fill="#6A0DAD" fill-opacity="0.3"/>
<path d="M238 138C238 134.686 240.686 132 244 132C247.314 132 250 134.686 250 138V322H238V138Z" fill="#6A0DAD"/>
<path d="M275 251C275 247.686 277.686 245 281 245C284.314 245 287 247.686 287 251V322H275V251Z" fill="#6A0DAD" fill-opacity="0.3"/>
<path d="M316 180C316 176.686 318.686 174 322 174C325.314 174 328 176.686 328 180V322H316V180Z" fill="#6A0DAD" fill-opacity="0.3"/>
</svg>
