<svg width="29" height="20" viewBox="0 0 29 20" fill="none" xmlns="http://www.w3.org/2000/svg">
<g clip-path="url(#clip0_34_15918)">
<path fill-rule="evenodd" clip-rule="evenodd" d="M9.99969 9.99998C7.78269 9.99998 5.98069 8.20599 5.98069 5.99998C5.98069 3.79398 7.78269 1.99998 9.99969 1.99998C12.2167 1.99998 14.0187 3.79398 14.0187 5.99998C14.0187 8.20599 12.2167 9.99998 9.99969 9.99998ZM13.7757 10.673C14.6019 10.015 15.2391 9.14995 15.6224 8.16576C16.0057 7.18156 16.1214 6.11336 15.9577 5.06993C15.5607 2.44693 13.3687 0.347977 10.7217 0.0419769C7.06969 -0.381023 3.97169 2.44898 3.97169 5.99998C3.97169 7.88998 4.85168 9.57396 6.22368 10.673C2.85168 11.934 0.389683 14.895 0.00368302 18.891C-0.00981302 19.0311 0.00608703 19.1726 0.0503597 19.3063C0.0946323 19.4399 0.166307 19.5628 0.260801 19.6672C0.355295 19.7716 0.470528 19.855 0.599134 19.9123C0.727741 19.9696 0.866893 19.9995 1.00769 20C1.25448 20.002 1.49311 19.9118 1.67681 19.7469C1.8605 19.5821 1.97601 19.3546 2.00068 19.109C2.40368 14.646 5.83669 12 9.99969 12C14.1627 12 17.5957 14.646 17.9987 19.109C18.0233 19.3546 18.1389 19.5821 18.3226 19.7469C18.5063 19.9118 18.7449 20.002 18.9917 20C19.5877 20 20.0517 19.482 19.9947 18.891C19.6097 14.895 17.1477 11.934 13.7747 10.673" fill="white"/>
</g>
<path d="M23 10.5V17.5M19.5 14H26.5" stroke="white" stroke-width="1.67" stroke-linecap="round" stroke-linejoin="round"/>
<defs>
<clipPath id="clip0_34_15918">
<rect width="20" height="20" fill="white"/>
</clipPath>
</defs>
</svg>
