<svg width="22" height="20" viewBox="0 0 22 20" fill="none" xmlns="http://www.w3.org/2000/svg">
<path d="M15 19V17C15 15.9391 14.5786 14.9217 13.8284 14.1716C13.0783 13.4214 12.0609 13 11 13H5C3.93913 13 2.92172 13.4214 2.17157 14.1716C1.42143 14.9217 1 15.9391 1 17V19" stroke="#6A0DAD" stroke-width="2" stroke-linecap="round" stroke-linejoin="round"/>
<path d="M8 9C10.2091 9 12 7.20914 12 5C12 2.79086 10.2091 1 8 1C5.79086 1 4 2.79086 4 5C4 7.20914 5.79086 9 8 9Z" stroke="#6A0DAD" stroke-width="2" stroke-linecap="round" stroke-linejoin="round"/>
<path d="M21 18.9999V16.9999C20.9993 16.1136 20.7044 15.2527 20.1614 14.5522C19.6184 13.8517 18.8581 13.3515 18 13.1299M15 1.12988C15.8604 1.35018 16.623 1.85058 17.1676 2.55219C17.7122 3.2538 18.0078 4.11671 18.0078 5.00488C18.0078 5.89305 17.7122 6.75596 17.1676 7.45757C16.623 8.15918 15.8604 8.65958 15 8.87988" stroke="#6A0DAD" stroke-width="2" stroke-linecap="round" stroke-linejoin="round"/>
</svg>
