<svg width="19" height="22" viewBox="0 0 19 22" fill="none" xmlns="http://www.w3.org/2000/svg">
<path d="M9.5 21.9165C8.21528 21.9165 7.00417 21.6689 5.86667 21.1738C4.72917 20.6787 3.73542 20.0061 2.88542 19.1561C2.03472 18.3054 1.36181 17.3113 0.866668 16.1738C0.371529 15.0363 0.124307 13.8255 0.125001 12.5415H2.20833C2.20833 14.5554 2.92014 16.2741 4.34375 17.6978C5.76736 19.1214 7.48611 19.8332 9.5 19.8332C11.5139 19.8332 13.2326 19.1214 14.6563 17.6978C16.0799 16.2741 16.7917 14.5554 16.7917 12.5415H18.875C18.875 13.8262 18.6274 15.0373 18.1323 16.1748C17.6372 17.3123 16.9646 18.3061 16.1146 19.1561C15.2639 20.0068 14.2698 20.6797 13.1323 21.1748C11.9948 21.67 10.784 21.9172 9.5 21.9165ZM0.125001 12.5415C0.125001 11.2568 0.372571 10.0457 0.86771 8.90817C1.36285 7.77067 2.03542 6.77692 2.88542 5.92692C3.73611 5.07623 4.73021 4.40331 5.86771 3.90817C7.00521 3.41303 8.21597 3.16581 9.5 3.1665C10.5764 3.1665 11.6094 3.34011 12.599 3.68734C13.5885 4.03456 14.5174 4.53803 15.3854 5.19775L16.8438 3.73942L18.3021 5.19775L16.8438 6.65609C17.5035 7.52414 18.0069 8.45296 18.3542 9.44254C18.7014 10.4321 18.875 11.4651 18.875 12.5415H16.7917C16.7917 10.5276 16.0799 8.80886 14.6563 7.38525C13.2326 5.96164 11.5139 5.24984 9.5 5.24984C7.48611 5.24984 5.76736 5.96164 4.34375 7.38525C2.92014 8.80886 2.20833 10.5276 2.20833 12.5415H0.125001ZM6.375 2.12484V0.0415039H12.625V2.12484H6.375ZM9.5 5.24984C7.65972 5.24984 6.0625 5.8488 4.70833 7.04671C3.35417 8.24463 2.54688 9.729 2.28646 11.4998H5.98438L7.33854 13.9998L11.5833 6.55192L14.2917 11.4998H16.7135C16.4531 9.729 15.6458 8.24463 14.2917 7.04671C12.9375 5.8488 11.3403 5.24984 9.5 5.24984ZM9.5 19.8332C11.3403 19.8332 12.9375 19.2342 14.2917 18.0363C15.6458 16.8384 16.4531 15.354 16.7135 13.5832H13.0156L11.6615 11.0832L7.41667 18.5311L4.70833 13.5832H2.28646C2.54688 15.354 3.35417 16.8384 4.70833 18.0363C6.0625 19.2342 7.65972 19.8332 9.5 19.8332ZM9.5 19.8332C7.48611 19.8332 5.76736 19.1214 4.34375 17.6978C2.92014 16.2741 2.20833 14.5554 2.20833 12.5415C2.20833 10.5276 2.92014 8.80886 4.34375 7.38525C5.76736 5.96164 7.48611 5.24984 9.5 5.24984C11.5139 5.24984 13.2326 5.96164 14.6563 7.38525C16.0799 8.80886 16.7917 10.5276 16.7917 12.5415C16.7917 14.5554 16.0799 16.2741 14.6563 17.6978C13.2326 19.1214 11.5139 19.8332 9.5 19.8332Z" fill="#6A0DAD"/>
</svg>
