<svg width="20" height="20" viewBox="0 0 20 20" fill="none" xmlns="http://www.w3.org/2000/svg">
<g clip-path="url(#clip0_8_8698)">
<path fill-rule="evenodd" clip-rule="evenodd" d="M7.78637 0.248834C9.16418 -0.0639321 10.5926 -0.081185 11.9776 0.198212C13.3625 0.477609 14.6726 1.04731 15.8214 1.86979C16.9702 2.69226 17.9316 3.74883 18.6424 4.96988C19.3532 6.19093 19.7972 7.54873 19.9451 8.95383C19.9711 9.20115 19.8979 9.44867 19.7414 9.64195C19.5849 9.83523 19.3581 9.95844 19.1107 9.98446C18.8634 10.0105 18.6159 9.9372 18.4226 9.78072C18.2293 9.62425 18.1061 9.3974 18.0801 9.15008C17.9194 7.62336 17.3295 6.1734 16.3787 4.96816C15.4278 3.76292 14.155 2.8517 12.7076 2.34008C11.2602 1.82845 9.6975 1.73734 8.20047 2.0773C6.70343 2.41726 5.33333 3.17438 4.24888 4.26096C3.16442 5.34754 2.40999 6.71912 2.07297 8.21682C1.73594 9.71453 1.83012 11.2771 2.34459 12.7234C2.85905 14.1698 3.77276 15.4409 4.97986 16.3893C6.18697 17.3378 7.63808 17.9249 9.16512 18.0826C9.28848 18.0941 9.40833 18.1299 9.51776 18.188C9.62718 18.2461 9.724 18.3253 9.80263 18.4211C9.88125 18.5168 9.94011 18.6272 9.97582 18.7459C10.0115 18.8645 10.0234 18.9891 10.0106 19.1123C9.99791 19.2355 9.96089 19.355 9.90171 19.4639C9.84252 19.5727 9.76235 19.6687 9.66583 19.7464C9.56931 19.8241 9.45834 19.8819 9.33936 19.9164C9.22037 19.9509 9.09572 19.9615 8.97262 19.9476C6.61376 19.7049 4.41791 18.6318 2.777 16.92C1.13609 15.2081 0.156904 12.9688 0.0142222 10.6018C-0.128459 8.23479 0.574647 5.8941 1.99804 3.99751C3.42144 2.10093 5.4725 0.771877 7.78512 0.247584L7.78637 0.248834ZM10.0001 3.75008C10.2488 3.75008 10.4872 3.84886 10.663 4.02467C10.8388 4.20049 10.9376 4.43894 10.9376 4.68758V11.2501H5.93762C5.68898 11.2501 5.45052 11.1513 5.2747 10.9755C5.09889 10.7997 5.00012 10.5612 5.00012 10.3126C5.00012 10.0639 5.09889 9.82549 5.2747 9.64967C5.45052 9.47386 5.68898 9.37508 5.93762 9.37508H9.06262V4.68758C9.06262 4.43894 9.16139 4.20049 9.3372 4.02467C9.51302 3.84886 9.75148 3.75008 10.0001 3.75008ZM12.7751 12.7751C12.9509 12.5995 13.1892 12.5009 13.4376 12.5009C13.6861 12.5009 13.9243 12.5995 14.1001 12.7751L16.2501 14.9251L18.4001 12.7751C18.4859 12.683 18.5894 12.6091 18.7044 12.5579C18.8194 12.5066 18.9436 12.4791 19.0695 12.4768C19.1953 12.4746 19.3204 12.4978 19.4371 12.5449C19.5538 12.5921 19.6599 12.6623 19.7489 12.7513C19.8379 12.8403 19.9081 12.9464 19.9553 13.0631C20.0024 13.1798 20.0256 13.3049 20.0234 13.4307C20.0211 13.5566 19.9936 13.6808 19.9423 13.7958C19.8911 13.9108 19.8172 14.0143 19.7251 14.1001L17.5751 16.2501L19.7251 18.4001C19.8172 18.4859 19.8911 18.5894 19.9423 18.7044C19.9936 18.8194 20.0211 18.9436 20.0234 19.0694C20.0256 19.1953 20.0024 19.3203 19.9553 19.4371C19.9081 19.5538 19.8379 19.6599 19.7489 19.7489C19.6599 19.8379 19.5538 19.9081 19.4371 19.9552C19.3204 20.0024 19.1953 20.0255 19.0695 20.0233C18.9436 20.0211 18.8194 19.9935 18.7044 19.9423C18.5894 19.8911 18.4859 19.8172 18.4001 19.7251L16.2501 17.5751L14.1001 19.7251C14.0143 19.8172 13.9108 19.8911 13.7958 19.9423C13.6808 19.9935 13.5566 20.0211 13.4308 20.0233C13.3049 20.0255 13.1799 20.0024 13.0631 19.9552C12.9464 19.9081 12.8403 19.8379 12.7513 19.7489C12.6623 19.6599 12.5921 19.5538 12.545 19.4371C12.4978 19.3203 12.4747 19.1953 12.4769 19.0694C12.4791 18.9436 12.5066 18.8194 12.5579 18.7044C12.6091 18.5894 12.683 18.4859 12.7751 18.4001L14.9251 16.2501L12.7751 14.1001C12.5996 13.9243 12.5009 13.686 12.5009 13.4376C12.5009 13.1891 12.5996 12.9509 12.7751 12.7751Z" fill="#6A0DAD"/>
</g>
<defs>
<clipPath id="clip0_8_8698">
<rect width="20" height="20" fill="white"/>
</clipPath>
</defs>
</svg>
