<svg width="26" height="22" viewBox="0 0 26 22" fill="none" xmlns="http://www.w3.org/2000/svg">
<path d="M16.5003 10.1666H18.2503V13.4566L21.097 15.1016L20.222 16.6183L16.5003 14.4716V10.1666ZM20.152 5.88492C19.102 2.94492 16.302 0.833252 13.0003 0.833252C9.85033 0.833252 7.16699 2.75825 6.00033 5.49992C2.78033 5.49992 0.166992 8.11325 0.166992 11.3333C0.166992 14.5533 2.78033 17.1666 6.00033 17.1666H10.2937C11.612 19.9199 14.412 21.8333 17.667 21.8333C22.182 21.8333 25.8337 18.1816 25.8337 13.6666C25.8337 10.0266 23.4537 6.94659 20.152 5.88492ZM6.00033 14.8333C4.06366 14.8333 2.50033 13.2699 2.50033 11.3333C2.50033 9.39659 4.06366 7.83325 6.00033 7.83325C6.43199 7.83325 6.85199 7.91492 7.23699 8.05492C7.46217 6.68912 8.16532 5.44776 9.22097 4.55238C10.2766 3.657 11.6161 3.16585 13.0003 3.16659C14.902 3.16659 16.582 4.08825 17.667 5.49992C13.1403 5.49992 9.50033 9.16325 9.50033 13.6666C9.50033 14.0633 9.53533 14.4483 9.59366 14.8333H6.00033ZM17.667 19.4999C14.447 19.4999 11.8337 16.8866 11.8337 13.6666C11.8337 10.4466 14.447 7.83325 17.667 7.83325C20.887 7.83325 23.5003 10.4466 23.5003 13.6666C23.5003 16.8866 20.887 19.4999 17.667 19.4999Z" fill="#6A0DAD"/>
</svg>
